HIERARCHY
ROOT Hips
{
  OFFSET -187.679 86.5976 -156.378
  CHANNELS 6 Xposition Yposition Zposition Zrotation Xrotation Yrotation
  JOINT LeftUpLeg
  {
    OFFSET 8.64259 1.95398 -2.38835
    CHANNELS 3 Zrotation Xrotation Yrotation
    JOINT LeftLeg
    {
      OFFSET 43.7702 0 0
      CHANNELS 3 Zrotation Xrotation Yrotation
      JOINT LeftFoot
      {
        OFFSET 40.6238 0 0
        CHANNELS 3 Zrotation Xrotation Yrotation
        JOINT LeftToeBase
        {
          OFFSET 12.7242 0 0
          CHANNELS 3 Zrotation Xrotation Yrotation
          End Site
          {
            OFFSET 0 0 0
          }
        }
      }
    }
  }
  JOINT RightUpLeg
  {
    OFFSET -8.2249 1.95398 -2.59336
    CHANNELS 3 Zrotation Xrotation Yrotation
    JOINT RightLeg
    {
      OFFSET 43.5653 0 0
      CHANNELS 3 Zrotation Xrotation Yrotation
      JOINT RightFoot
      {
        OFFSET 40.6238 0 0
        CHANNELS 3 Zrotation Xrotation Yrotation
        JOINT RightToeBase
        {
          OFFSET 12.7242 0 0
          CHANNELS 3 Zrotation Xrotation Yrotation
          End Site
          {
            OFFSET 0 0 0
          }
        }
      }
    }
  }
  JOINT Spine
  {
    OFFSET 0.165834 0.87714 6.61349
    CHANNELS 3 Zrotation Xrotation Yrotation
    JOINT Spine1
    {
      OFFSET 7.38963 1.71661e-005 0
      CHANNELS 3 Zrotation Xrotation Yrotation
      JOINT Spine2
      {
        OFFSET 11.9445 1.14441e-005 0
        CHANNELS 3 Zrotation Xrotation Yrotation
        JOINT Spine3
        {
          OFFSET 14.7254 4.19617e-005 0
          CHANNELS 3 Zrotation Xrotation Yrotation
          JOINT Spine4
          {
            OFFSET 10.9679 0 0
            CHANNELS 3 Zrotation Xrotation Yrotation
            JOINT RightShoulder
            {
              OFFSET 2.46616 -1.6653 3.69651
              CHANNELS 3 Zrotation Xrotation Yrotation
              JOINT RightArm
              {
                OFFSET 13.0012 0 0
                CHANNELS 3 Zrotation Xrotation Yrotation
                JOINT RightForeArm
                {
                  OFFSET 28.7848 1.52588e-005 0
                  CHANNELS 3 Zrotation Xrotation Yrotation
                  JOINT RightHand
                  {
                    OFFSET 26.5688 1.52588e-005 0
                    CHANNELS 3 Zrotation Xrotation Yrotation
                    End Site
                    {
                      OFFSET 0 0 0
                    }
                  }
                }
              }
            }
            JOINT LeftShoulder
            {
              OFFSET 2.38034 -1.29275 -3.7523
              CHANNELS 3 Zrotation Xrotation Yrotation
              JOINT LeftArm
              {
                OFFSET 16.3182 6.10352e-005 0
                CHANNELS 3 Zrotation Xrotation Yrotation
                JOINT LeftForeArm
                {
                  OFFSET 27.0901 0 0
                  CHANNELS 3 Zrotation Xrotation Yrotation
                  JOINT LeftHand
                  {
                    OFFSET 24.5451 1.52588e-005 0
                    CHANNELS 3 Zrotation Xrotation Yrotation
                    End Site
                    {
                      OFFSET 0 0 0
                    }
                  }
                }
              }
            }
            JOINT Neck
            {
              OFFSET 5.0226 -0.0266342 0
              CHANNELS 3 Zrotation Xrotation Yrotation
              JOINT Head
              {
                OFFSET 6.69363 2.86102e-005 0
                CHANNELS 3 Zrotation Xrotation Yrotation
                End Site
                {
                  OFFSET 0 0 0
                }
              }
            }
          }
        }
      }
    }
  }
}
MOTION
Frames:	18
Frame Time:	0.0416667
35.5221 34.7995 8.07798 -135.386 -80.8436 -134.68 -1.64393 61.569 -45.5289 -155.295 11.4473 9.63685 86.6621 10.3006 -0.910989 7.11727 -9.54826 1.05083 61.0363 39.3352 -178.899 -143.997 43.3116 -12.2755 107.283 -12.1507 -4.74027 27.5266 -1.97345 5.93602 0.839496 12.9348 -89.9686 1.00222 1.68705 0.121271 -10.6676 1.69075 0.0468694 -33.2106 1.57259 0.622801 -13.198 1.57258 0.622799 85.9128 -39.796 -110.303 -14.3628 -16.9614 -77.54 -4.24605 -47.2181 -6.21777 -27.6142 -5.02573 15.7084 -93.3109 -31.9278 68.0945 20.7302 19.4492 -80.9907 2.49301 20.2741 -1.67273 9.10908 1.70994 13.5425 22.755 -4.00389 -5.31534 10.4705 -1.51237 4.55637 
35.6303 34.8158 7.88649 -144.372 -81.1969 -143.239 -2.93394 62.2107 -47.1997 -154.76 9.78797 9.45557 86.4139 9.86143 -1.63883 6.99074 -9.85012 1.46306 61.3649 39.7286 178.712 -144.291 42.3793 -12.1544 110.04 -12.776 -3.59863 24.9886 -1.80946 3.76695 0.752397 12.9956 -90.0793 0.882413 1.47141 -0.0994924 -10.7877 1.46561 -0.16417 -33.3293 1.43327 0.347425 -13.3167 1.43328 0.347415 86.0133 -39.5684 -110.219 -16.2272 -17.0589 -79.0886 -1.54428 -46.1213 -3.85611 -25.6754 -4.21004 13.7888 -93.2745 -31.6437 68.0449 20.5515 19.5696 -80.9978 2.73352 18.7253 -1.89507 12.6939 2.24422 13.222 23.153 -2.73903 -3.55977 11.6281 -1.20723 1.58842 
35.622 34.7874 7.89348 -144.261 -81.1561 -143.214 -2.65305 62.3536 -47.3867 -154.747 10.0067 9.47091 86.2529 9.41836 -2.40842 7.76397 -10.5997 3.38486 61.3013 39.7261 178.913 -144.331 42.377 -12.1465 109.774 -12.7353 -3.80647 25.2206 -1.78363 3.83548 0.74445 12.986 -90.0561 0.901399 1.46431 -0.0550836 -10.7687 1.46047 -0.119494 -33.3102 1.41315 0.387649 -13.2975 1.41315 0.387642 85.7365 -39.8221 -110.593 -16.3683 -17.5042 -78.3551 -2.3844 -44.1457 -4.16807 -21.8362 -3.24134 11.9703 -93.2673 -31.4265 67.9694 19.5983 19.418 -80.6042 2.90235 21.1058 -2.21409 8.4508 1.44749 11.9585 22.8126 -2.90049 -4.08119 11.8191 -1.13942 2.03967 
35.6055 34.8788 7.85405 -144.197 -81.0989 -143.063 -3.74249 62.536 -46.3106 -154.867 9.69259 9.38311 88.5349 11.7496 -0.280544 4.80126 -9.5389 -0.706806 61.4373 39.7417 178.771 -144.123 42.4997 -12.2112 109.64 -12.6947 -3.63307 25.27 -1.75838 3.78693 0.758984 12.9932 -90.0735 0.887096 1.48675 -0.0879353 -10.783 1.48143 -0.153315 -33.3247 1.44442 0.363057 -13.3121 1.44443 0.363047 85.8031 -39.6776 -110.535 -16.1731 -18.2457 -77.9747 -3.23988 -43.2105 -4.73272 -19.3685 -2.62063 10.7308 -93.3542 -31.6512 67.9032 20.0338 19.3944 -80.6949 2.84084 21.496 -2.14633 8.76073 1.72574 14.226 22.8719 -2.86236 -3.92518 11.8802 -1.15225 2.03398 
35.5989 34.8243 7.87503 -143.929 -81.0541 -142.867 -3.02337 62.4646 -46.9435 -154.874 9.89686 9.41998 87.5629 10.7686 -1.09804 7.29216 -9.60832 1.2955 61.5272 39.7252 178.835 -144.194 42.4517 -12.1777 109.68 -12.7843 -3.94013 25.3686 -1.78086 3.916 0.759487 12.9986 -90.0696 0.876145 1.4892 -0.0800239 -10.794 1.48424 -0.145487 -33.3357 1.44438 0.371348 -13.323 1.44439 0.37135 85.8908 -39.6495 -110.397 -15.9006 -18.0248 -77.9221 -3.45284 -45.504 -5.36284 -18.9909 -2.61698 11.0115 -93.3685 -31.6559 67.879 20.0285 19.3535 -80.7074 2.77367 21.173 -2.00587 8.53847 1.66995 14.0518 23.007 -2.82273 -3.87313 11.8349 -1.11812 2.1074 
35.6143 34.8059 7.88746 -144.394 -81.1505 -143.223 -2.38934 62.4056 -47.6935 -154.719 9.96889 9.45057 86.2292 9.44196 -2.34092 9.74081 -9.71837 3.53259 61.4645 39.6071 178.737 -144.228 42.4426 -12.1908 109.848 -12.8149 -3.88098 25.1961 -1.7875 3.83277 0.753402 12.9985 -90.0992 0.876689 1.46587 -0.138567 -10.7934 1.45836 -0.202966 -33.3351 1.43973 0.308491 -13.3224 1.43974 0.308498 86.0045 -39.4272 -110.288 -14.3167 -17.4271 -77.6472 -4.07571 -46.9679 -5.56576 -21.2517 -3.23657 12.613 -93.4313 -31.7114 67.7874 19.9303 19.2679 -80.5936 2.87319 21.5646 -2.22734 8.55195 1.66171 13.9456 22.9984 -2.84095 -3.53032 11.852 -1.29181 1.78798 
35.5914 34.8342 7.8708 -144.275 -81.1149 -143.18 -3.11053 62.4644 -46.9384 -154.854 9.75054 9.40334 87.7309 10.8325 -1.19896 7.11875 -9.62225 1.29712 61.5119 39.6481 178.747 -144.138 42.5595 -12.2202 109.752 -12.7596 -3.80515 25.4096 -1.73868 3.80973 0.759394 13.014 -90.1006 0.845804 1.47735 -0.140214 -10.8243 1.46975 -0.205118 -33.366 1.45117 0.31036 -13.3534 1.45117 0.310357 86.1444 -39.3181 -110.091 -15.1251 -17.5651 -77.9043 -3.89206 -45.3454 -5.40107 -20.17 -2.89103 11.5455 -93.4202 -31.9365 67.8992 20.2829 19.2216 -80.9367 2.80164 20.7068 -2.09902 8.75998 1.56309 12.629 23.2411 -2.84392 -3.4346 11.5883 -1.33044 1.73216 
35.5626 34.834 7.88308 -145.03 -81.1243 -144 -3.23194 62.6537 -46.8783 -154.843 9.77708 9.38067 88.1375 11.1343 -1.06537 4.92087 -10.053 0.185738 61.4559 39.6608 178.737 -144.151 42.5321 -12.2258 109.696 -12.8582 -4.04608 25.3697 -1.79792 3.96968 0.7307 13.0124 -90.0937 0.849039 1.42267 -0.128933 -10.8211 1.41562 -0.191448 -33.3624 1.39563 0.304674 -13.3497 1.39564 0.304681 85.9967 -39.4251 -110.302 -15.184 -17.6457 -77.8368 -3.8846 -46.2371 -5.73624 -20.4143 -2.84902 11.1682 -93.4174 -31.9237 67.8996 19.9826 19.2176 -80.6678 2.86728 22.1661 -2.17281 8.9143 1.86259 15.3193 22.9194 -2.84516 -3.42499 11.7518 -1.36284 1.57661 
35.5622 34.8303 7.93764 -144.681 -81.1474 -143.758 -2.70183 62.5338 -47.2577 -154.775 10.0304 9.45951 86.421 9.55626 -2.32061 9.28906 -9.607 2.95248 61.5537 39.8074 178.688 -144.237 42.605 -12.1696 109.872 -12.7394 -3.86565 25.5451 -1.70711 3.79291 0.738178 13.0285 -90.1141 0.816952 1.42992 -0.167764 -10.8532 1.42116 -0.230559 -33.3946 1.41422 0.269824 -13.3819 1.41422 0.269837 86.4661 -38.9583 -109.676 -15.2902 -17.26 -78.5131 -3.06552 -45.436 -4.74378 -22.6642 -3.55259 13.0524 -93.565 -32.5201 67.875 20.9698 19.1274 -81.0198 3.02508 22.1868 -2.94088 10.0392 1.72357 12.3463 23.5657 -2.77189 -2.96772 11.278 -1.42942 1.61507 
35.5407 34.8328 7.95023 -144.352 -81.1681 -143.437 -2.58118 62.7149 -47.3236 -154.725 10.0304 9.44605 86.8351 9.71842 -2.51687 9.98586 -9.5357 3.45616 61.5593 39.8275 178.741 -144.158 42.8493 -12.2132 110.005 -12.7511 -3.68283 25.431 -1.79475 3.99697 0.730896 12.9992 -90.0782 0.875088 1.42894 -0.0988409 -10.7951 1.4232 -0.16165 -33.3363 1.39257 0.335277 -13.3237 1.39257 0.33526 85.9078 -39.4973 -110.426 -17.1776 -17.9691 -78.6794 -2.30944 -44.1229 -4.30926 -19.3212 -2.6704 11.074 -93.4461 -32.0135 67.8841 20.0078 19.3299 -80.6314 2.86896 22.1697 -2.15483 8.49695 1.78562 15.2786 22.8655 -2.91982 -3.60235 11.793 -1.34455 1.81687 
35.5251 34.9028 7.92402 -143.796 -81.1478 -142.943 -3.00632 62.6811 -46.8727 -154.765 10.0199 9.43746 87.2196 10.2778 -1.78236 7.30481 -9.83085 1.69929 61.5588 39.9092 178.809 -144.154 42.695 -12.1736 109.795 -12.7209 -3.63238 25.4769 -1.75423 3.89822 0.742397 13.0127 -90.0796 0.848223 1.45135 -0.100391 -10.8219 1.44552 -0.164197 -33.3634 1.4144 0.340525 -13.3507 1.41441 0.340516 86.3075 -39.3185 -109.812 -16.7299 -18.0409 -79.1144 -1.95246 -42.9029 -3.58205 -19.3684 -2.61135 10.6595 -93.3805 -32.11 68.0422 20.2497 19.2264 -80.8873 2.93287 21.5691 -2.2973 8.7604 1.73688 14.3559 23.3462 -2.90034 -3.31958 11.4555 -1.43416 1.63633 
35.527 34.8747 7.93766 -144.03 -81.1824 -143.141 -2.51086 62.6795 -47.4058 -154.688 10.0524 9.45944 86.3557 9.36719 -2.70589 8.06431 -10.1293 2.82744 61.5051 39.9154 178.767 -144.172 42.9278 -12.1803 110.003 -12.63 -3.30966 25.325 -1.76652 3.84502 0.736089 13.012 -90.0924 0.849785 1.43393 -0.125966 -10.8204 1.427 -0.188974 -33.3617 1.40548 0.310896 -13.3491 1.40548 0.310901 86.4117 -39.1655 -109.691 -17.8069 -18.1095 -79.3764 -2.12444 -42.424 -4.03637 -19.4914 -2.70426 11.1031 -93.417 -32.1195 67.98 20.422 19.2374 -80.8714 2.79816 20.891 -2.14831 8.67053 1.62033 13.3354 23.1777 -2.93096 -3.23141 11.6033 -1.50712 1.54805 
35.5308 34.8978 7.93998 -143.867 -81.1821 -142.951 -3.7814 62.6727 -46.2292 -154.797 9.62009 9.38408 88.4662 11.5744 -0.58205 4.96985 -9.37426 -0.905376 61.5115 39.8324 178.708 -144.088 42.8259 -12.2308 109.963 -12.7209 -3.50965 25.4486 -1.8194 4.08432 0.736671 13.0124 -90.0981 0.848978 1.43294 -0.1371 -10.8212 1.42551 -0.200061 -33.3625 1.40788 0.299984 -13.3499 1.40788 0.299978 86.4822 -39.077 -109.603 -16.4292 -18.2092 -78.7314 -3.21207 -41.9987 -4.63809 -19.9223 -2.86472 11.6689 -93.4669 -31.9966 67.8395 20.487 19.1788 -80.7283 2.90297 20.6761 -2.28278 8.61263 1.58466 13.0639 23.1999 -2.89797 -3.12379 11.597 -1.54534 1.28394 
35.5223 34.8875 7.94678 -143.769 -81.0475 -142.953 -2.68914 62.8005 -47.1102 -154.787 10.0735 9.44513 86.636 9.64794 -2.40806 7.21903 -9.98254 1.87791 61.5789 39.9817 178.728 -144.259 42.7072 -12.142 109.81 -12.5863 -3.34209 25.4274 -1.6704 3.60787 0.746092 13.0098 -90.0859 0.853996 1.45632 -0.112474 -10.8161 1.44996 -0.176492 -33.3576 1.42279 0.330496 -13.345 1.42278 0.330485 86.4186 -39.1353 -109.69 -15.3801 -17.9984 -78.2133 -3.80905 -45.5058 -5.55801 -18.6696 -2.61927 11.3121 -93.5429 -31.9931 67.7002 20.5822 19.2948 -80.5979 2.97743 21.0243 -2.49905 8.86982 1.7007 13.7903 23.0993 -2.98301 -3.29915 11.7451 -1.54288 1.48115 
35.5114 34.8343 7.93838 -143.47 -81.1092 -142.589 -2.79005 62.5531 -47.1314 -154.797 9.75457 9.42771 86.78 9.94697 -1.93664 6.40584 -9.67404 0.704754 61.5827 39.7633 178.729 -144.213 42.7567 -12.1908 110.122 -12.7319 -3.44534 25.2278 -1.74001 3.70502 0.73521 12.9928 -90.1035 0.888404 1.42802 -0.148452 -10.7818 1.4201 -0.211176 -33.3231 1.40659 0.287671 -13.3104 1.4066 0.287674 86.3816 -38.9524 -109.823 -17.0471 -18.539 -78.7101 -2.86121 -43.3072 -4.83441 -18.4681 -2.48365 10.6936 -93.6658 -32.2573 67.5862 21.0237 19.4389 -80.4967 3.02534 19.5621 -2.62874 8.11753 1.34816 11.3823 22.9654 -2.88585 -2.94138 11.7216 -1.61377 1.17756 
35.4919 34.8065 7.94383 -143.762 -81.0174 -142.79 -2.04028 62.6714 -47.8743 -154.851 9.92937 9.40256 86.5922 9.72036 -2.14749 7.3493 -9.57306 1.28472 61.7562 39.5593 178.538 -144.209 42.6127 -12.2169 110.063 -12.858 -3.94026 25.3781 -1.81326 4.02251 0.745191 12.9794 -90.0972 0.914946 1.45033 -0.135837 -10.7552 1.44295 -0.199555 -33.2967 1.42409 0.306414 -13.284 1.42409 0.30642 85.9846 -39.3651 -110.346 -15.1267 -17.6715 -77.5079 -3.94659 -45.06 -5.82119 -23.0608 -3.55144 12.6355 -93.7132 -32.2106 67.4818 20.7279 19.5917 -80.2258 2.95908 19.5447 -2.58325 8.62113 1.45691 11.7594 22.4764 -2.93242 -3.30346 11.9772 -1.53048 1.32553 
35.4724 34.8012 7.88201 -143.267 -81.1113 -142.26 -1.79947 62.5492 -48.1792 -154.834 9.86744 9.37497 86.7002 9.82213 -2.06701 6.55138 -9.76264 0.969314 61.6237 39.4331 178.795 -144.099 42.9222 -12.2759 110.038 -12.7097 -3.53118 25.1931 -1.81962 3.93029 0.743333 12.9639 -90.1107 0.945999 1.44152 -0.163194 -10.7242 1.43293 -0.226503 -33.2656 1.4239 0.277673 -13.253 1.42391 0.277676 86.0986 -39.2665 -110.189 -15.9034 -18.2671 -77.9899 -3.51042 -44.9745 -5.28277 -18.7377 -2.58135 11.0157 -93.7637 -32.5627 67.535 20.9364 19.439 -80.2295 3.03138 20.6875 -2.84377 8.67295 1.46892 11.7981 22.5887 -2.86545 -3.1555 11.7952 -1.51573 1.31374 
35.4846 34.7396 7.90351 -142.466 -81.1311 -141.565 -2.6698 62.2541 -47.2644 -154.921 9.6556 9.40205 87.3929 10.6549 -1.10383 4.35526 -9.5058 -1.14621 61.5114 39.3394 179.085 -144.25 42.6893 -12.2379 109.911 -12.8136 -3.88079 25.2896 -1.77742 3.85774 0.756093 12.9619 -90.0882 0.949906 1.47546 -0.11807 -10.7202 1.46883 -0.182918 -33.2619 1.44272 0.330928 -13.2492 1.44272 0.330914 85.968 -39.558 -110.3 -16.7217 -18.1909 -78.1049 -1.91762 -43.8101 -4.15552 -16.9875 -2.1643 9.88457 -93.4834 -31.9913 67.8076 20.5621 19.5272 -80.476 3.04871 21.0552 -2.656 8.79542 1.69031 13.8404 22.9006 -3.0111 -3.56239 11.6941 -1.46822 1.64407 
